<?xml version="1.0" standalone="no"?>
<!DOCTYPE svg PUBLIC "-//W3C//DTD SVG 20010904//EN"
 "http://www.w3.org/TR/2001/REC-SVG-20010904/DTD/svg10.dtd">
<svg version="1.0" xmlns="http://www.w3.org/2000/svg"
 width="1024.000000pt" height="1024.000000pt" viewBox="0 0 1024.000000 1024.000000"
 preserveAspectRatio="xMidYMid meet">
<metadata>
Created by potrace 1.11, written by Peter Selinger 2001-2013
</metadata>
<g transform="translate(0.000000,1024.000000) scale(0.100000,-0.100000)"
fill="#000000" stroke="none">
<path d="M4857 9274 c-1 -1 -40 -5 -87 -8 -47 -4 -96 -8 -110 -10 -14 -2 -51
-7 -84 -11 -65 -7 -101 -13 -133 -20 -12 -3 -40 -7 -64 -10 -23 -3 -45 -7 -48
-9 -4 -3 -24 -7 -46 -10 -22 -4 -101 -22 -175 -41 -74 -20 -143 -37 -153 -40
-10 -2 -87 -27 -169 -55 -468 -159 -884 -385 -1273 -695 -131 -104 -164 -134
-326 -295 -192 -191 -320 -342 -485 -572 -34 -49 -177 -275 -187 -298 -4 -8
-17 -31 -29 -50 -33 -56 -143 -277 -183 -370 -184 -429 -291 -852 -332 -1320
-16 -171 -8 -673 11 -800 2 -14 7 -50 11 -80 10 -86 15 -120 31 -197 7 -39 17
-89 20 -110 17 -114 118 -457 189 -641 43 -113 145 -343 187 -420 163 -302
320 -539 512 -771 62 -76 349 -369 421 -431 207 -179 347 -284 540 -405 430
-270 889 -455 1383 -559 67 -14 143 -28 170 -31 26 -3 54 -8 62 -10 18 -5 83
-13 255 -32 147 -15 721 -8 820 11 11 2 47 7 80 11 73 9 90 12 135 20 19 3 46
8 60 10 77 13 219 45 245 55 17 6 31 11 33 10 8 -5 84 16 252 69 308 97 628
244 915 419 94 58 351 238 420 294 265 219 489 449 703 723 34 43 161 225 172
245 7 14 16 27 20 30 28 22 245 428 309 580 18 41 36 84 41 95 105 226 245
753 275 1030 4 33 8 71 11 85 24 145 26 842 2 865 -8 8 -160 79 -238 112 -151
63 -474 166 -594 189 -11 2 -32 6 -46 9 -52 11 -197 36 -235 40 -22 3 -56 7
-75 10 -188 24 -614 24 -741 0 -12 -2 -47 -7 -78 -11 -92 -11 -319 -60 -426
-93 -55 -18 -107 -33 -116 -35 -82 -20 -373 -151 -534 -239 -85 -47 -357 -223
-400 -258 -11 -10 -57 -47 -103 -82 -197 -154 -464 -416 -628 -617 -16 -19
-34 -40 -39 -46 -12 -13 -47 -56 -129 -159 -127 -159 -180 -218 -306 -345
-398 -400 -773 -591 -1165 -593 -573 -3 -1114 414 -1616 1243 -67 111 -291
551 -284 558 2 2 34 -20 72 -50 37 -30 91 -69 118 -88 28 -19 55 -38 60 -43
68 -58 415 -242 575 -306 107 -42 291 -96 390 -114 47 -9 110 -20 140 -26 57
-10 416 -8 460 3 25 6 53 11 100 20 145 27 347 111 500 205 240 149 488 397
667 666 44 67 45 58 -21 160 -78 117 -137 187 -285 335 -70 69 -170 158 -224
199 -216 162 -479 299 -727 379 -121 39 -144 45 -260 75 l-54 13 80 41 c150
77 270 149 479 288 319 213 589 440 835 702 202 214 373 457 494 700 136 272
221 592 219 820 -1 99 6 95 -139 91 -69 -2 -126 -4 -127 -4z m2841 -4342 c98
-38 167 -102 215 -202 29 -59 32 -74 32 -160 0 -86 -3 -101 -32 -160 -17 -36
-46 -81 -65 -101 -133 -145 -359 -168 -513 -51 -157 119 -204 317 -116 492 28
55 113 139 166 165 99 47 216 54 313 17z"/>
</g>
</svg>
